<?xml version="1.0" encoding="utf-8"?>
<!-- Generator: Adobe Illustrator 26.2.1, SVG Export Plug-In . SVG Version: 6.00 Build 0)  -->
<svg version="1.1" id="Layer_1" xmlns="http://www.w3.org/2000/svg" xmlns:xlink="http://www.w3.org/1999/xlink" x="0px" y="0px"
	 viewBox="0 0 33.6 34.3" style="enable-background:new 0 0 33.6 34.3;" xml:space="preserve">
<style type="text/css">
	.st0{fill:#FFFFFF;}
</style>
<g>
	<path class="st0" d="M16.8,0.7C7.5,0.7,0,8.2,0,17.5C0,26.6,7.3,34,16.4,34.3c0.1,0,0.3,0,0.5,0c0.2,0,0.3,0,0.5,0
		c9.1-0.2,16.4-7.7,16.4-16.8C33.6,8.2,26.1,0.7,16.8,0.7L16.8,0.7z M16.2,1.8v6.7h-5.4c0.3-0.8,0.6-1.6,0.9-2.3
		C13,3.7,14.6,2.1,16.2,1.8L16.2,1.8z M17.4,1.8c1.7,0.3,3.2,1.8,4.5,4.4c0.3,0.7,0.6,1.5,0.9,2.3h-5.4V1.8L17.4,1.8z M13.2,2.2
		c-1,0.9-1.8,2.1-2.5,3.5C10.3,6.6,10,7.5,9.7,8.5H3.9C6.1,5.4,9.4,3.1,13.2,2.2L13.2,2.2z M20.4,2.2c3.8,0.9,7.1,3.2,9.3,6.3h-5.7
		c-0.3-1-0.7-1.9-1.1-2.8C22.2,4.3,21.3,3.1,20.4,2.2z M3.2,9.6h6.1c-0.6,2.2-0.9,4.7-0.9,7.3H1.1C1.2,14.3,2,11.8,3.2,9.6L3.2,9.6z
		 M10.5,9.6h5.7v7.3H9.5C9.6,14.3,9.9,11.8,10.5,9.6L10.5,9.6z M17.4,9.6h5.7c0.6,2.2,0.9,4.6,1,7.3h-6.7V9.6L17.4,9.6z M24.2,9.6
		h6.1c1.2,2.2,2,4.6,2.1,7.3h-7.3C25.1,14.3,24.8,11.8,24.2,9.6L24.2,9.6z M1.1,18h7.3c0,2.6,0.4,5.1,0.9,7.3H3.2
		C2,23.2,1.2,20.7,1.1,18L1.1,18z M9.5,18h6.7v7.3h-5.7C9.9,23.2,9.6,20.7,9.5,18L9.5,18z M17.4,18h6.7c0,2.6-0.4,5.1-1,7.3h-5.7V18
		L17.4,18z M25.2,18h7.3c-0.1,2.6-0.8,5.1-2.1,7.3h-6.1C24.8,23.1,25.1,20.6,25.2,18L25.2,18z M3.9,26.4h5.8c0.3,1,0.7,1.9,1.1,2.8
		c0.7,1.5,1.5,2.7,2.5,3.6C9.4,31.9,6.1,29.6,3.9,26.4L3.9,26.4z M10.9,26.4h5.4v6.7c-1.7-0.3-3.2-1.8-4.5-4.4
		C11.4,28,11.1,27.3,10.9,26.4L10.9,26.4z M17.4,26.4h5.4c-0.3,0.8-0.6,1.6-0.9,2.3c-1.2,2.5-2.8,4.1-4.5,4.4V26.4L17.4,26.4z
		 M23.9,26.4h5.8c-2.2,3.1-5.5,5.4-9.3,6.3c1-0.9,1.8-2.1,2.5-3.5C23.3,28.4,23.6,27.4,23.9,26.4L23.9,26.4z"/>
</g>
</svg>
